<mxfile host="Electron" modified="2023-12-23T07:19:57.813Z" agent="Mozilla/5.0 (Macintosh; Intel Mac OS X 10_15_7) AppleWebKit/537.36 (KHTML, like Gecko) draw.io/22.1.11 Chrome/114.0.5735.289 Electron/25.9.8 Safari/537.36" etag="kAJxRNgIEVO5yBcvyae-" version="22.1.11" type="device">
  <diagram name="第 1 页" id="QeTOSCY7bUkGTXuDj3ty">
    <mxGraphModel dx="2209" dy="1037" grid="1" gridSize="10" guides="1" tooltips="1" connect="1" arrows="1" fold="1" page="1" pageScale="1" pageWidth="827" pageHeight="1169" math="0" shadow="0">
      <root>
        <mxCell id="0" />
        <mxCell id="1" parent="0" />
        <mxCell id="oGBhI0xbQFgRkRewdgP9-8" value="Agent" style="rounded=0;whiteSpace=wrap;html=1;verticalAlign=top;align=left;fontSize=16;fontFamily=Roboto;" vertex="1" parent="1">
          <mxGeometry x="-70" y="120" width="610" height="240" as="geometry" />
        </mxCell>
        <mxCell id="oGBhI0xbQFgRkRewdgP9-9" value="Environment" style="rounded=0;whiteSpace=wrap;html=1;verticalAlign=top;align=left;fontSize=16;fontFamily=Roboto;" vertex="1" parent="1">
          <mxGeometry x="-70" y="380" width="610" height="190" as="geometry" />
        </mxCell>
        <mxCell id="oGBhI0xbQFgRkRewdgP9-15" style="edgeStyle=orthogonalEdgeStyle;rounded=0;orthogonalLoop=1;jettySize=auto;html=1;exitX=1;exitY=0.5;exitDx=0;exitDy=0;entryX=0;entryY=0.75;entryDx=0;entryDy=0;fontFamily=Roboto;" edge="1" parent="1" source="oGBhI0xbQFgRkRewdgP9-1" target="oGBhI0xbQFgRkRewdgP9-2">
          <mxGeometry relative="1" as="geometry" />
        </mxCell>
        <mxCell id="oGBhI0xbQFgRkRewdgP9-1" value="Perception" style="rounded=0;whiteSpace=wrap;html=1;fontFamily=Roboto;" vertex="1" parent="1">
          <mxGeometry x="-30" y="264" width="120" height="60" as="geometry" />
        </mxCell>
        <mxCell id="oGBhI0xbQFgRkRewdgP9-2" value="" style="rounded=0;whiteSpace=wrap;html=1;fontFamily=Roboto;" vertex="1" parent="1">
          <mxGeometry x="130" y="140" width="240" height="205" as="geometry" />
        </mxCell>
        <mxCell id="oGBhI0xbQFgRkRewdgP9-21" style="edgeStyle=orthogonalEdgeStyle;rounded=0;orthogonalLoop=1;jettySize=auto;html=1;exitX=0.5;exitY=1;exitDx=0;exitDy=0;entryX=0.5;entryY=0;entryDx=0;entryDy=0;fontFamily=Roboto;" edge="1" parent="1" source="oGBhI0xbQFgRkRewdgP9-3" target="oGBhI0xbQFgRkRewdgP9-14">
          <mxGeometry relative="1" as="geometry" />
        </mxCell>
        <mxCell id="oGBhI0xbQFgRkRewdgP9-3" value="Action" style="rounded=0;whiteSpace=wrap;html=1;fontFamily=Roboto;" vertex="1" parent="1">
          <mxGeometry x="410" y="264" width="120" height="60" as="geometry" />
        </mxCell>
        <mxCell id="oGBhI0xbQFgRkRewdgP9-17" style="edgeStyle=orthogonalEdgeStyle;rounded=0;orthogonalLoop=1;jettySize=auto;html=1;exitX=1;exitY=0.5;exitDx=0;exitDy=0;entryX=0;entryY=0.5;entryDx=0;entryDy=0;fontFamily=Roboto;" edge="1" parent="1" source="oGBhI0xbQFgRkRewdgP9-4" target="oGBhI0xbQFgRkRewdgP9-3">
          <mxGeometry relative="1" as="geometry" />
        </mxCell>
        <mxCell id="oGBhI0xbQFgRkRewdgP9-4" value="Planning/Decision" style="rounded=0;whiteSpace=wrap;html=1;fontFamily=Roboto;" vertex="1" parent="1">
          <mxGeometry x="195" y="264" width="120" height="60" as="geometry" />
        </mxCell>
        <mxCell id="oGBhI0xbQFgRkRewdgP9-5" value="State" style="rounded=1;whiteSpace=wrap;html=1;strokeColor=#004C99;fontFamily=Roboto;" vertex="1" parent="1">
          <mxGeometry x="150" y="150" width="200" height="30" as="geometry" />
        </mxCell>
        <mxCell id="oGBhI0xbQFgRkRewdgP9-6" value="Memory/Experience/Reflection" style="rounded=1;whiteSpace=wrap;html=1;strokeColor=#004C99;fontFamily=Roboto;" vertex="1" parent="1">
          <mxGeometry x="150" y="185" width="200" height="30" as="geometry" />
        </mxCell>
        <mxCell id="oGBhI0xbQFgRkRewdgP9-18" style="edgeStyle=orthogonalEdgeStyle;rounded=0;orthogonalLoop=1;jettySize=auto;html=1;exitX=0.5;exitY=1;exitDx=0;exitDy=0;entryX=0.5;entryY=0;entryDx=0;entryDy=0;strokeColor=#004C99;fontFamily=Roboto;" edge="1" parent="1" source="oGBhI0xbQFgRkRewdgP9-7" target="oGBhI0xbQFgRkRewdgP9-4">
          <mxGeometry relative="1" as="geometry" />
        </mxCell>
        <mxCell id="oGBhI0xbQFgRkRewdgP9-7" value="World knowledge" style="rounded=1;whiteSpace=wrap;html=1;strokeColor=#004C99;fontFamily=Roboto;" vertex="1" parent="1">
          <mxGeometry x="150" y="220" width="200" height="30" as="geometry" />
        </mxCell>
        <mxCell id="oGBhI0xbQFgRkRewdgP9-20" style="edgeStyle=orthogonalEdgeStyle;rounded=0;orthogonalLoop=1;jettySize=auto;html=1;exitX=0.5;exitY=0;exitDx=0;exitDy=0;entryX=0.5;entryY=1;entryDx=0;entryDy=0;fontFamily=Roboto;" edge="1" parent="1" source="oGBhI0xbQFgRkRewdgP9-10" target="oGBhI0xbQFgRkRewdgP9-8">
          <mxGeometry relative="1" as="geometry" />
        </mxCell>
        <mxCell id="oGBhI0xbQFgRkRewdgP9-23" style="edgeStyle=orthogonalEdgeStyle;rounded=0;orthogonalLoop=1;jettySize=auto;html=1;exitX=0;exitY=0.5;exitDx=0;exitDy=0;entryX=0.5;entryY=1;entryDx=0;entryDy=0;fontFamily=Roboto;" edge="1" parent="1" source="oGBhI0xbQFgRkRewdgP9-10" target="oGBhI0xbQFgRkRewdgP9-1">
          <mxGeometry relative="1" as="geometry" />
        </mxCell>
        <mxCell id="oGBhI0xbQFgRkRewdgP9-10" value="Feedback" style="rounded=0;whiteSpace=wrap;html=1;verticalAlign=top;align=left;fontSize=15;fontFamily=Roboto;" vertex="1" parent="1">
          <mxGeometry x="140" y="410" width="190" height="150" as="geometry" />
        </mxCell>
        <mxCell id="oGBhI0xbQFgRkRewdgP9-11" value="Success/Failure" style="rounded=1;whiteSpace=wrap;html=1;flipV=0;fontFamily=Roboto;" vertex="1" parent="1">
          <mxGeometry x="150" y="445.5" width="170" height="30" as="geometry" />
        </mxCell>
        <mxCell id="oGBhI0xbQFgRkRewdgP9-12" value="Result" style="rounded=1;whiteSpace=wrap;html=1;flipV=0;fontFamily=Roboto;" vertex="1" parent="1">
          <mxGeometry x="150" y="481" width="170" height="29" as="geometry" />
        </mxCell>
        <mxCell id="oGBhI0xbQFgRkRewdgP9-13" value="Reward" style="rounded=1;whiteSpace=wrap;html=1;flipV=0;fontFamily=Roboto;" vertex="1" parent="1">
          <mxGeometry x="150" y="515" width="170" height="30" as="geometry" />
        </mxCell>
        <mxCell id="oGBhI0xbQFgRkRewdgP9-22" style="edgeStyle=orthogonalEdgeStyle;rounded=0;orthogonalLoop=1;jettySize=auto;html=1;exitX=0;exitY=0.5;exitDx=0;exitDy=0;entryX=1;entryY=0.5;entryDx=0;entryDy=0;fontFamily=Roboto;" edge="1" parent="1" source="oGBhI0xbQFgRkRewdgP9-14" target="oGBhI0xbQFgRkRewdgP9-10">
          <mxGeometry relative="1" as="geometry" />
        </mxCell>
        <mxCell id="oGBhI0xbQFgRkRewdgP9-14" value="Tools" style="rounded=0;whiteSpace=wrap;html=1;fontFamily=Roboto;" vertex="1" parent="1">
          <mxGeometry x="410" y="455" width="120" height="60" as="geometry" />
        </mxCell>
        <mxCell id="oGBhI0xbQFgRkRewdgP9-19" value="Policy" style="text;html=1;align=center;verticalAlign=middle;resizable=0;points=[];autosize=1;strokeColor=none;fillColor=none;fontFamily=Roboto;" vertex="1" parent="1">
          <mxGeometry x="320" y="270" width="60" height="30" as="geometry" />
        </mxCell>
        <mxCell id="oGBhI0xbQFgRkRewdgP9-24" value="Observation" style="text;html=1;align=center;verticalAlign=middle;resizable=0;points=[];autosize=1;strokeColor=none;fillColor=none;fontFamily=Roboto;" vertex="1" parent="1">
          <mxGeometry x="30" y="330" width="90" height="30" as="geometry" />
        </mxCell>
        <mxCell id="oGBhI0xbQFgRkRewdgP9-25" value="" style="triangle;whiteSpace=wrap;html=1;direction=south;" vertex="1" parent="1">
          <mxGeometry x="550" y="120" width="370" height="250" as="geometry" />
        </mxCell>
        <mxCell id="oGBhI0xbQFgRkRewdgP9-40" value="" style="endArrow=none;html=1;rounded=0;exitX=0.798;exitY=0.398;exitDx=0;exitDy=0;exitPerimeter=0;entryX=0.798;entryY=0.602;entryDx=0;entryDy=0;entryPerimeter=0;" edge="1" parent="1" source="oGBhI0xbQFgRkRewdgP9-25" target="oGBhI0xbQFgRkRewdgP9-25">
          <mxGeometry width="50" height="50" relative="1" as="geometry">
            <mxPoint x="710" y="439.4" as="sourcePoint" />
            <mxPoint x="770.5999999999999" y="440.20000000000016" as="targetPoint" />
          </mxGeometry>
        </mxCell>
        <mxCell id="oGBhI0xbQFgRkRewdgP9-41" value="" style="endArrow=none;html=1;rounded=0;exitX=0.6;exitY=0.701;exitDx=0;exitDy=0;exitPerimeter=0;entryX=0.6;entryY=0.298;entryDx=0;entryDy=0;entryPerimeter=0;" edge="1" parent="1" source="oGBhI0xbQFgRkRewdgP9-25" target="oGBhI0xbQFgRkRewdgP9-25">
          <mxGeometry width="50" height="50" relative="1" as="geometry">
            <mxPoint x="690" y="390" as="sourcePoint" />
            <mxPoint x="740" y="340" as="targetPoint" />
          </mxGeometry>
        </mxCell>
        <mxCell id="oGBhI0xbQFgRkRewdgP9-42" value="" style="endArrow=none;html=1;rounded=0;exitX=0.4;exitY=0.801;exitDx=0;exitDy=0;exitPerimeter=0;entryX=0.4;entryY=0.2;entryDx=0;entryDy=0;entryPerimeter=0;" edge="1" parent="1" source="oGBhI0xbQFgRkRewdgP9-25" target="oGBhI0xbQFgRkRewdgP9-25">
          <mxGeometry width="50" height="50" relative="1" as="geometry">
            <mxPoint x="660" y="300" as="sourcePoint" />
            <mxPoint x="710" y="250" as="targetPoint" />
          </mxGeometry>
        </mxCell>
        <mxCell id="oGBhI0xbQFgRkRewdgP9-43" value="" style="endArrow=none;html=1;rounded=0;exitX=0.2;exitY=0.902;exitDx=0;exitDy=0;exitPerimeter=0;entryX=0.196;entryY=0.097;entryDx=0;entryDy=0;entryPerimeter=0;" edge="1" parent="1" source="oGBhI0xbQFgRkRewdgP9-25" target="oGBhI0xbQFgRkRewdgP9-25">
          <mxGeometry width="50" height="50" relative="1" as="geometry">
            <mxPoint x="630" y="210" as="sourcePoint" />
            <mxPoint x="860" y="200" as="targetPoint" />
          </mxGeometry>
        </mxCell>
        <mxCell id="oGBhI0xbQFgRkRewdgP9-45" value="Prompt" style="text;html=1;align=center;verticalAlign=middle;resizable=0;points=[];autosize=1;strokeColor=none;fillColor=none;fontFamily=Roboto;fontStyle=0" vertex="1" parent="1">
          <mxGeometry x="705" y="273.5" width="60" height="30" as="geometry" />
        </mxCell>
        <mxCell id="oGBhI0xbQFgRkRewdgP9-46" value="Chain" style="text;html=1;align=center;verticalAlign=middle;resizable=0;points=[];autosize=1;strokeColor=none;fillColor=none;fontFamily=Roboto;fontStyle=0" vertex="1" parent="1">
          <mxGeometry x="705" y="224.5" width="60" height="30" as="geometry" />
        </mxCell>
        <mxCell id="oGBhI0xbQFgRkRewdgP9-47" value="Agent" style="text;html=1;align=center;verticalAlign=middle;resizable=0;points=[];autosize=1;strokeColor=none;fillColor=none;fontFamily=Roboto;fontStyle=0" vertex="1" parent="1">
          <mxGeometry x="705" y="176.5" width="60" height="30" as="geometry" />
        </mxCell>
        <mxCell id="oGBhI0xbQFgRkRewdgP9-48" value="Multi-Agent" style="text;html=1;align=center;verticalAlign=middle;resizable=0;points=[];autosize=1;strokeColor=none;fillColor=none;fontFamily=Roboto;fontStyle=0" vertex="1" parent="1">
          <mxGeometry x="690" y="127.5" width="90" height="30" as="geometry" />
        </mxCell>
        <mxCell id="oGBhI0xbQFgRkRewdgP9-49" value="Model" style="text;html=1;align=center;verticalAlign=middle;resizable=0;points=[];autosize=1;strokeColor=none;fillColor=none;fontFamily=Roboto;" vertex="1" parent="1">
          <mxGeometry x="705" y="321.5" width="60" height="30" as="geometry" />
        </mxCell>
      </root>
    </mxGraphModel>
  </diagram>
</mxfile>
